<svg preserveAspectRatio="none" width="100%" height="100%" overflow="visible" style="display: block;" viewBox="0 0 240 46.9401" fill="none" xmlns="http://www.w3.org/2000/svg">
<g id="Group 1">
<path id="Vector" d="M0 1.14988C10.7001 -0.77472 22.9527 -0.249921 34.2037 2.47331C42.954 4.22165 57.0785 9.30382 61.8113 11.2237C61.816 11.2646 61.8199 11.3071 61.8223 11.348C57.0305 9.66656 43.5182 5.36415 35.1187 3.85894C27.204 2.33956 18.3104 1.4764 9.05803 1.30487C7.52606 1.27419 6.00275 1.26946 4.50305 1.29071C2.98446 1.28127 1.50915 1.32139 0.0542917 1.31431C0.0354077 1.25923 0.018884 1.20495 0 1.14988C0.00157367 1.14751 0.00157367 1.14751 0 1.14988Z" fill="var(--fill-0, white)"/>
<path id="Vector_2" d="M1.93486 4.31688C13.9907 2.23492 26.0261 3.31051 36.4438 5.87874C44.6387 7.60269 57.2862 11.9319 61.7665 13.5512C61.7602 13.5921 61.7555 13.6322 61.7499 13.6731C57.1666 12.2875 44.7811 8.70032 36.8506 7.2793C29.3497 5.90785 20.8433 4.94477 11.4658 4.57732C8.75907 4.45772 4.7352 4.48211 1.98128 4.49155C1.9624 4.43411 1.95138 4.37197 1.93486 4.31768C1.93722 4.31768 1.93722 4.31768 1.93486 4.31768V4.31688Z" fill="var(--fill-0, white)"/>
<path id="Vector_3" d="M3.48884 7.67507C16.0609 5.7072 27.7273 6.98344 37.4037 9.28493C45.0651 10.8539 56.737 14.5008 61.2503 15.8747C61.2377 15.9124 61.2243 15.9557 61.2125 15.999C56.5482 14.8659 44.8692 11.9373 37.3951 10.6997C30.2711 9.53829 22.2076 8.62478 13.0213 8.10232C10.3689 7.94496 6.35213 7.88751 3.52661 7.85682C3.51481 7.79702 3.50379 7.73486 3.48963 7.67584C3.48963 7.67348 3.48963 7.67348 3.48963 7.67584L3.48884 7.67507Z" fill="var(--fill-0, white)"/>
<path id="Vector_4" d="M5.75492 11.1308C17.9839 9.5021 28.8965 10.8043 37.7413 12.7816C44.752 14.1389 55.6394 17.1155 60.3494 18.243C60.3297 18.2863 60.3124 18.3288 60.2935 18.3697C55.4025 17.4995 44.2862 15.2287 37.3966 14.2152C30.744 13.2946 23.3328 12.4984 14.7602 11.8044C13.3298 11.695 11.8655 11.6037 10.3721 11.54C8.87707 11.4377 7.34668 11.3992 5.7801 11.3205C5.77144 11.256 5.76515 11.1914 5.75492 11.1324V11.1308Z" fill="var(--fill-0, white)"/>
<path id="Vector_5" d="M7.15626 14.7511C18.7581 13.4347 28.9036 14.6149 37.1 16.2799C43.5646 17.4224 54.0783 19.8144 59.1534 20.6948C59.1314 20.7405 59.1062 20.7829 59.0841 20.8262C53.8061 20.218 42.9037 18.546 36.5036 17.7497C30.2231 17.0534 23.4028 16.4121 15.5038 15.6127C14.1819 15.4836 12.8309 15.3695 11.4421 15.2791C10.0526 15.1453 8.62764 15.0666 7.16728 14.9478C7.16177 14.8833 7.15941 14.8187 7.15469 14.7519C7.15469 14.7542 7.15469 14.7542 7.15469 14.7519L7.15626 14.7511Z" fill="var(--fill-0, white)"/>
<path id="Vector_6" d="M7.3152 18.4649C18.2726 17.394 27.7713 18.4028 35.5547 19.8081C41.6337 20.7523 52.1584 22.6391 57.7654 23.252C57.7386 23.3 57.7166 23.3449 57.6891 23.3905C51.8736 23.0655 40.8556 21.9262 34.793 21.318C28.7391 20.8246 22.3823 20.3116 15.0702 19.4532C13.8451 19.3147 12.5909 19.1857 11.2989 19.0739C10.0117 18.9166 8.68272 18.819 7.31914 18.6616C7.31756 18.5971 7.31363 18.5279 7.3152 18.4657C7.31442 18.4657 7.31442 18.4657 7.3152 18.4657V18.4649Z" fill="var(--fill-0, white)"/>
<path id="Vector_7" d="M7.32071 22.1953C17.448 21.3888 26.2299 22.2575 33.6655 23.4283C39.3905 24.2127 50.1087 25.6125 56.294 25.9233C56.2688 25.9713 56.2421 26.0193 56.2161 26.0665C49.827 26.0594 38.5564 25.4323 32.8125 24.9744C26.9632 24.6526 21.0706 24.2371 14.3951 23.3118C13.2786 23.1639 12.1314 23.0207 10.9512 22.8846C9.77563 22.7083 8.56469 22.5793 7.31677 22.3912C7.31913 22.3267 7.32071 22.263 7.32071 22.1961C7.32228 22.1984 7.32228 22.1984 7.32071 22.1961V22.1953Z" fill="var(--fill-0, white)"/>
<path id="Vector_8" d="M7.19643 25.9225C16.3866 25.3694 24.4336 26.1491 31.6095 27.1248C37.0214 27.781 48.0913 28.7182 54.862 28.6993C54.8368 28.7473 54.8132 28.7968 54.7904 28.8472C47.8356 29.1855 36.2078 29.0352 30.7369 28.6922C25.0536 28.5112 19.5749 28.1579 13.5564 27.161C12.5485 27.0013 11.5114 26.8392 10.4516 26.6865C9.39405 26.489 8.30114 26.3356 7.1862 26.1169C7.19013 26.0524 7.1917 25.9878 7.19564 25.9233L7.19643 25.9225Z" fill="var(--fill-0, white)"/>
<path id="Vector_9" d="M6.9572 29.6261C15.1812 29.302 22.5373 30.0455 29.5551 30.8591C34.7387 31.4217 46.2871 31.9158 53.6046 31.5484C53.5826 31.5987 53.5653 31.6483 53.5456 31.6987C46.088 32.3927 34.0117 32.6932 28.7336 32.4289C23.1557 32.3573 18.0248 32.0354 12.6185 30.974C11.7113 30.8025 10.7859 30.6254 9.84095 30.4539C8.90068 30.2367 7.93287 30.0628 6.94146 29.8197C6.94618 29.7528 6.9517 29.6883 6.9572 29.6261C6.95956 29.6238 6.95956 29.6238 6.9572 29.6261Z" fill="var(--fill-0, white)"/>
<path id="Vector_10" d="M6.61256 33.2944C13.9089 33.1653 20.6804 33.9073 27.6706 34.5895C32.7205 35.0852 44.8936 35.1615 52.6707 34.4345C52.6604 34.4848 52.647 34.5368 52.6337 34.5848C44.7756 35.6486 32.1626 36.352 26.9727 36.1419C21.4208 36.1608 16.5117 35.8461 11.6365 34.728C10.8166 34.5447 9.99044 34.3605 9.14931 34.1725C8.31684 33.9435 7.45919 33.7476 6.59132 33.4856C6.5984 33.421 6.60548 33.3581 6.61256 33.2944Z" fill="var(--fill-0, white)"/>
<path id="Vector_11" d="M6.16725 36.917C12.6539 36.9288 19.0021 37.7109 26.1339 38.2719C31.1909 38.718 44.1099 38.3812 52.2285 37.2938C52.2277 37.3442 52.2222 37.3938 52.2222 37.4418C44.1084 38.8612 30.8778 39.9675 25.639 39.796C20.0069 39.8912 15.1608 39.567 10.6719 38.4104C9.91572 38.2247 9.16744 38.024 8.4113 37.8258C7.66302 37.5921 6.90372 37.3843 6.14128 37.1058C6.15072 37.0436 6.15938 36.9807 6.16725 36.917Z" fill="var(--fill-0, white)"/>
<path id="Vector_12" d="M5.62037 40.4852C11.4909 40.5993 17.6605 41.4342 25.1394 41.8803C30.3742 42.2926 44.1721 41.5034 52.4677 40.0556C52.4818 40.1013 52.4897 40.1461 52.5031 40.1965C44.3255 41.9472 30.3978 43.5067 24.9356 43.3658C19.0973 43.5421 14.0883 43.199 9.78823 42.0133C9.06828 41.8197 8.36013 41.6175 7.65748 41.4121C6.96428 41.1666 6.2703 40.9542 5.5889 40.6702C5.6007 40.608 5.60857 40.5466 5.62037 40.4852C5.62037 40.4876 5.62037 40.4876 5.62037 40.4852Z" fill="var(--fill-0, white)"/>
<path id="Vector_13" d="M4.96571 43.9843C10.5396 44.1849 16.8437 45.0882 24.9064 45.3982C30.5291 45.7704 45.3413 44.4155 53.6078 42.6152C53.6408 42.6585 53.666 42.701 53.6975 42.7442C45.6891 44.8002 30.9902 46.9302 25.0953 46.8492C18.8911 47.1308 13.4564 46.7752 9.05803 45.547C8.32234 45.3439 7.61262 45.1394 6.92178 44.9246C6.23802 44.6767 5.56921 44.4525 4.92794 44.1661C4.94132 44.1039 4.95233 44.041 4.96571 43.9843C4.96728 43.9843 4.9665 43.9819 4.96571 43.9843Z" fill="var(--fill-0, white)"/>
<path id="Vector_14" d="M52.6825 15.0926C55.1586 15.5222 59.6932 16.4302 61.7743 16.8716C64.6833 17.3681 67.2365 18.033 69.8889 19.1251C69.8874 19.1589 69.8811 19.192 69.8811 19.2258C65.736 19.347 61.329 17.8355 57.1171 16.6355C55.6638 16.1871 54.1798 15.7244 52.629 15.2381C52.6478 15.1878 52.6651 15.1406 52.6825 15.0926Z" fill="var(--fill-0, white)"/>
<path id="Vector_15" d="M51.4243 17.9023C53.906 18.2124 58.5711 18.8898 60.8057 19.2234C63.9074 19.5689 66.6881 20.1055 69.7198 21.0693C69.715 21.1047 69.7127 21.1409 69.7095 21.174C64.9523 21.517 60.1416 20.2298 55.8479 19.2352C54.3663 18.8607 52.8705 18.4626 51.3448 18.0526C51.3724 18.0023 51.3983 17.9551 51.4243 17.9023C51.4251 17.9047 51.4251 17.9047 51.4243 17.9023Z" fill="var(--fill-0, white)"/>
<path id="Vector_16" d="M49.7499 20.8215C52.2662 21.0103 57.1627 21.4486 59.5956 21.6681C62.9498 21.8491 66.046 22.2425 69.5057 23.0514C69.5018 23.0844 69.4979 23.123 69.4931 23.1568C64.0593 23.7745 58.7584 22.7272 54.2766 21.9474C52.7249 21.6445 51.1945 21.318 49.6524 20.9789C49.683 20.9261 49.7177 20.8766 49.7499 20.8215C49.7499 20.8238 49.7499 20.8238 49.7499 20.8215Z" fill="var(--fill-0, white)"/>
<path id="Vector_17" d="M47.8198 23.872C50.3935 23.9436 55.5764 24.1293 58.2414 24.2151C61.8789 24.2198 65.3434 24.4464 69.2461 25.0712C69.2406 25.1042 69.2358 25.1428 69.2311 25.179C63.1269 26.1114 57.2909 25.3434 52.5392 24.7832C50.8963 24.5566 49.2975 24.304 47.7144 24.0365C47.749 23.9814 47.7868 23.9295 47.8198 23.872C47.8206 23.872 47.8206 23.872 47.8198 23.872Z" fill="var(--fill-0, white)"/>
<path id="Vector_18" d="M45.8 27.0461C48.4477 27.0005 53.9493 26.9265 56.8495 26.8746C60.7782 26.6866 64.6282 26.7219 68.9502 27.1413C68.9463 27.1767 68.9392 27.2129 68.9345 27.2507C62.2338 28.534 55.8487 28.0666 50.7791 27.7401C49.0276 27.5898 47.3414 27.4128 45.6954 27.2153C45.7284 27.1555 45.7638 27.1028 45.8 27.0453C45.8016 27.0477 45.8008 27.0477 45.8 27.0453V27.0461Z" fill="var(--fill-0, white)"/>
<path id="Vector_19" d="M43.8605 30.3178C46.5947 30.1675 52.4134 29.8315 55.5395 29.6238C59.7372 29.2351 63.9586 29.0636 68.6473 29.2587C68.6434 29.2941 68.6387 29.3327 68.6316 29.3704C61.4588 31.0236 54.5661 30.8804 49.1488 30.7867C47.2793 30.7222 45.4916 30.6223 43.7645 30.4909C43.7968 30.4334 43.8274 30.3744 43.8605 30.3178C43.8621 30.3178 43.8621 30.3178 43.8605 30.3178Z" fill="var(--fill-0, white)"/>
<path id="Vector_20" d="M42.1822 33.6429C45.0046 33.3951 51.1246 32.7987 54.4466 32.4383C58.8717 31.849 63.4196 31.4532 68.3814 31.4225C68.3775 31.4603 68.3751 31.4965 68.3696 31.5366C60.9317 33.547 53.5905 33.7311 47.8175 33.8861C45.8276 33.9026 43.9274 33.8814 42.1059 33.8192C42.1326 33.7594 42.1547 33.6996 42.1838 33.6429C42.1822 33.6429 42.1822 33.6429 42.1838 33.6429H42.1822Z" fill="var(--fill-0, white)"/>
<path id="Vector_21" d="M40.9563 36.9673C43.8707 36.6211 50.2551 35.7823 53.7171 35.2693C58.2965 34.4919 63.0993 33.8625 68.2106 33.6138C68.209 33.6516 68.2075 33.6878 68.2051 33.7279C60.7656 36.0554 53.0814 36.5778 46.9622 36.9783C44.8543 37.0782 42.8384 37.1333 40.9083 37.138C40.9225 37.0806 40.939 37.0208 40.9563 36.9665C40.9571 36.9665 40.9571 36.9665 40.9563 36.9665V36.9673Z" fill="var(--fill-0, white)"/>
<path id="Vector_22" d="M40.3953 40.2279C43.4041 39.7983 49.9844 38.7062 53.5228 38.0532C58.1722 37.094 63.1222 36.2474 68.2146 35.8114C68.2169 35.8492 68.2193 35.8901 68.2208 35.9287C61.1173 38.471 53.2325 39.3443 46.7875 39.9951C44.571 40.1855 42.4355 40.3145 40.3882 40.3979C40.3898 40.3405 40.3945 40.2862 40.3945 40.2287L40.3953 40.2279Z" fill="var(--fill-0, white)"/>
<path id="Vector_23" d="M40.7344 43.3564C43.8322 42.8245 50.5305 41.4916 54.0563 40.7063C58.6616 39.5898 63.6171 38.541 68.4939 37.9705C68.5002 38.0083 68.5096 38.0421 68.5183 38.0823C62.1709 40.7126 54.2459 41.9196 47.5224 42.8473C45.2138 43.1314 42.9556 43.3533 40.7824 43.5153C40.7651 43.465 40.7509 43.4107 40.7344 43.3556C40.7352 43.358 40.7352 43.3556 40.7344 43.3556V43.3564Z" fill="var(--fill-0, white)"/>
<path id="Vector_24" d="M42.2404 46.2661C45.4279 45.6154 52.1364 44.0244 55.5426 43.1251C59.9583 41.8709 64.758 40.6568 69.1745 40.0344C69.1918 40.0674 69.2075 40.1036 69.2241 40.1367C64.1317 42.6483 56.3814 44.1747 49.4265 45.4218C47.0385 45.8153 44.6725 46.1465 42.3576 46.4093C42.3183 46.3637 42.2774 46.3141 42.2404 46.2661C42.2412 46.2638 42.2404 46.2638 42.2404 46.2661Z" fill="var(--fill-0, white)"/>
<path id="Vector_25" d="M121.923 38.53V44.9143H121.257V41.9692H117.261V44.9143H116.586V38.53H117.261V41.3752H121.257V38.53H121.923Z" fill="var(--fill-0, white)"/>
<path id="Vector_26" d="M135.436 44.3321V44.9143H130.92V38.53H135.299V39.1122H131.595V41.3854H134.897V41.9598H131.595V44.3329H135.436V44.3321Z" fill="var(--fill-0, white)"/>
<path id="Vector_27" d="M144.448 38.53H143.773V44.9143H144.448V38.53Z" fill="var(--fill-0, white)"/>
<path id="Vector_28" d="M158.026 41.7206H158.674V44.1582C158.073 44.6972 157.215 44.9694 156.33 44.9694C154.386 44.9694 152.963 43.5932 152.963 41.7214C152.963 39.8518 154.386 38.4757 156.338 38.4757C157.305 38.4757 158.145 38.7857 158.711 39.3963L158.291 39.8259C157.753 39.2963 157.114 39.0768 156.366 39.0768C154.788 39.0768 153.628 40.2004 153.628 41.7214C153.628 43.2384 154.788 44.3691 156.356 44.3691C156.968 44.3691 157.534 44.2306 158.026 43.8757V41.7222V41.7206Z" fill="var(--fill-0, white)"/>
<path id="Vector_29" d="M172.837 38.53V44.9143H172.172V41.9692H168.175V44.9143H167.5V38.53H168.175V41.3752H172.172V38.53H172.837Z" fill="var(--fill-0, white)"/>
<path id="Vector_30" d="M183.168 39.1114H180.923V38.5292H186.087V39.1114H183.842V44.9143H183.167L183.168 39.1114Z" fill="var(--fill-0, white)"/>
<path id="Vector_31" d="M193.613 44.1393L193.877 43.6192C194.334 44.0677 195.146 44.3942 195.985 44.3942C197.181 44.3942 197.701 43.893 197.701 43.2636C197.701 41.5129 193.768 42.5885 193.768 40.2248C193.768 39.2853 194.498 38.4741 196.122 38.4741C196.843 38.4741 197.591 38.6842 198.102 39.0391L197.874 39.5757C197.326 39.22 196.687 39.0485 196.121 39.0485C194.954 39.0485 194.434 39.5686 194.434 40.2051C194.434 41.9582 198.366 40.8991 198.366 43.2266C198.366 44.1661 197.618 44.9678 195.985 44.9678C195.026 44.9678 194.087 44.6319 193.612 44.1377L193.613 44.1393Z" fill="var(--fill-0, white)"/>
<path id="Vector_32" d="M84.6554 20.4351C84.6043 21.3203 84.5705 22.4432 84.5705 25.8517H90.1058C93.4955 25.8517 94.4665 24.8115 94.4665 23.1427C94.4665 21.473 93.4955 20.4359 90.1058 20.4359H84.6554V20.4351ZM83.6506 31.7443C83.2926 31.7443 82.9016 31.7947 82.5436 31.8112C82.612 30.6711 82.7308 28.9322 82.7308 25.596C82.7308 21.4722 82.6285 20.657 82.5436 19.5311C83.1738 19.5476 83.9402 19.6003 84.5878 19.6003C85.1669 19.6003 88.795 19.5311 90.1058 19.5311C94.3303 19.5311 96.4249 20.3659 96.4249 23.1419C96.4249 25.3214 95.1306 26.312 92.5411 26.6338C93.1202 27.0438 93.4947 27.5717 93.8354 28.1508C94.7552 29.7174 95.402 31.5563 97.1228 31.5736C97.8042 31.5736 98.4172 31.4044 99.0301 31.0133L99.1324 31.1825C98.4337 31.6593 97.5485 31.9835 96.373 31.9835C91.2633 31.9835 92.881 26.7534 89.2364 26.7534H84.5697C84.587 29.3437 84.6893 30.7576 84.7569 31.812C84.3824 31.7955 84.0071 31.7451 83.6499 31.7451L83.6506 31.7443Z" fill="var(--fill-0, white)"/>
<path id="Vector_33" d="M113.565 19.7026L113.804 20.8955L113.65 20.9285C113.378 20.5209 112.134 20.4352 111.266 20.4352H102.92C102.904 21.9333 102.818 23.4833 102.818 24.983H108.234C108.984 24.983 110.994 24.9477 111.624 24.795C111.573 25.0334 111.573 25.2222 111.573 25.441C111.573 25.6463 111.573 25.8179 111.624 26.0736C110.994 25.9021 108.984 25.8848 108.234 25.8848H102.818C102.818 27.5544 102.904 29.2406 102.92 30.893H110.738C112.424 30.893 113.395 30.8237 114.077 30.1085L114.23 30.1777L113.583 31.5397C113.464 31.7947 113.395 31.812 113.106 31.812C110.04 31.812 107.792 31.7451 106.071 31.7451C104.453 31.7451 102.358 31.7955 100.74 31.812C100.808 30.6719 100.928 28.933 100.928 25.5968C100.928 21.473 100.826 20.6578 100.74 19.5319C102.41 19.5484 104.539 19.6011 106.208 19.6011C107.74 19.6011 110.006 19.5319 113.327 19.5319C113.464 19.5319 113.531 19.5846 113.565 19.7042V19.7026Z" fill="var(--fill-0, white)"/>
<path id="Vector_34" d="M118.39 20.4351C118.339 21.3534 118.305 22.4959 118.305 25.9705H123.977C126.634 25.9705 128.2 25.2718 128.2 23.2111C128.2 21.1339 126.634 20.4344 123.977 20.4344H118.39V20.4351ZM117.385 31.7443C117.028 31.7443 116.636 31.7947 116.278 31.8112C116.346 30.6711 116.466 28.9322 116.466 25.596C116.466 21.4722 116.363 20.657 116.278 19.5311C116.925 19.5476 117.675 19.6003 118.322 19.6003C118.901 19.6003 123.074 19.5311 123.977 19.5311C128.167 19.5311 130.296 20.4186 130.296 23.2111C130.296 26.0036 128.167 26.8888 123.977 26.8888H118.305C118.322 29.3932 118.424 30.8576 118.492 31.8112C118.118 31.7947 117.743 31.7443 117.385 31.7443Z" fill="var(--fill-0, white)"/>
<path id="Vector_35" d="M134.17 25.629C134.17 29.2737 137.236 31.4367 141.477 31.4367C145.463 31.4367 148.699 29.4617 148.699 25.7156C148.699 22.0521 145.616 19.9056 141.375 19.9056C137.389 19.9056 134.17 21.8664 134.17 25.6298V25.629ZM141.562 19.1392C146.774 19.1392 150.964 21.5414 150.964 25.526C150.964 29.4948 147.013 32.2038 141.307 32.2038C136.095 32.2038 131.905 29.8024 131.905 25.7644C131.905 21.7956 135.839 19.1392 141.562 19.1392Z" fill="var(--fill-0, white)"/>
<path id="Vector_36" d="M155.855 20.4351C155.804 21.3203 155.77 22.4432 155.77 25.8517H161.306C164.695 25.8517 165.665 24.8115 165.665 23.1427C165.665 21.473 164.695 20.4359 161.306 20.4359L155.855 20.4351ZM154.85 31.7443C154.492 31.7443 154.101 31.7947 153.743 31.8112C153.812 30.6711 153.931 28.9322 153.931 25.596C153.931 21.4722 153.828 20.657 153.743 19.5311C154.374 19.5476 155.14 19.6003 155.788 19.6003C156.367 19.6003 159.995 19.5311 161.306 19.5311C165.529 19.5311 167.625 20.3659 167.625 23.1419C167.625 25.3214 166.33 26.312 163.741 26.6338C164.32 27.0438 164.695 27.5717 165.035 28.1508C165.955 29.7174 166.602 31.5563 168.323 31.5736C169.004 31.5736 169.617 31.4044 170.23 31.0133L170.332 31.1825C169.633 31.6593 168.748 31.9835 167.573 31.9835C162.463 31.9835 164.081 26.7534 160.436 26.7534H155.769C155.787 29.3437 155.889 30.7576 155.957 31.812C155.582 31.7955 155.208 31.7451 154.85 31.7451L154.85 31.7443Z" fill="var(--fill-0, white)"/>
<path id="Vector_37" d="M176.866 31.7443C176.508 31.7443 176.116 31.7947 175.759 31.8112C175.827 30.6711 175.964 28.9322 175.964 25.596C175.964 22.5116 175.896 21.2857 175.827 20.3824H171.127C170.513 20.3824 170.003 20.5209 169.662 20.9954L169.492 20.9623L169.764 19.498H169.951C170.343 19.498 170.735 19.5311 171.28 19.5311H182.453C183.015 19.5311 183.645 19.5311 183.782 19.498H183.986L184.258 20.9623L184.088 20.9954C183.731 20.5209 183.237 20.3824 182.623 20.3824H177.905C177.837 21.2865 177.786 22.5124 177.786 25.596C177.786 28.9322 177.905 30.6711 177.973 31.8112C177.615 31.7947 177.224 31.7443 176.866 31.7443Z" fill="var(--fill-0, white)"/>
<path id="Vector_38" d="M190.552 20.8089C189.241 22.7839 187.81 24.9823 186.413 27.1626H194.435C193.209 25.0665 191.932 22.9554 190.551 20.8089H190.552ZM192.171 20.0764C194.538 24.1474 196.685 27.6229 199.477 31.8104C198.949 31.7774 198.592 31.7601 198.251 31.7601C197.893 31.7601 197.552 31.7766 197.025 31.8104C196.343 30.568 195.662 29.3256 194.964 28.08H185.835C185.034 29.3586 184.25 30.6364 183.553 31.8104C183.382 31.7774 183.092 31.7601 182.786 31.7601C182.479 31.7601 182.172 31.7766 182.02 31.8104C184.557 28.235 187.624 23.7729 190.042 20.0598C189.787 19.8214 189.429 19.7349 188.884 19.7018V19.5295C189.242 19.5295 189.838 19.5822 190.196 19.5822C190.588 19.5822 191.031 19.5295 191.252 19.5295C191.729 19.5295 191.95 19.5822 192.172 20.0756L192.171 20.0764Z" fill="var(--fill-0, white)"/>
<path id="Vector_39" d="M201.793 25.4599C201.793 29.0179 204.962 31.4036 209.475 31.4036C211.229 31.4036 212.983 31.1148 214.21 30.5357C214.176 27.5544 214.108 26.8054 214.023 25.8848C214.363 25.9021 214.721 25.9375 215.062 25.9375C215.403 25.9375 215.76 25.9021 216.101 25.8848C216.016 26.8557 215.913 27.5709 215.913 30.996C215.249 31.2344 214.5 31.4894 213.717 31.6759C212.388 32 210.94 32.2054 209.424 32.2054C203.94 32.2054 199.613 29.7867 199.613 25.511C199.613 21.44 203.548 19.1408 209.424 19.1408C211.554 19.1408 213.529 19.4296 215.267 20.1637C215.471 20.2306 215.692 20.3667 215.761 20.5548L215.948 22.1552L215.795 22.1882C214.841 20.86 212.49 19.9245 209.373 19.9245C205.15 19.9245 201.793 21.7633 201.793 25.4599Z" fill="var(--fill-0, white)"/>
<path id="Vector_40" d="M232.083 19.7026L232.321 20.8955L232.168 20.9285C231.895 20.5209 230.652 20.4352 229.783 20.4352H221.437C221.42 21.9333 221.335 23.4833 221.335 24.983H226.751C227.5 24.983 229.511 24.9477 230.141 24.795C230.09 25.0334 230.09 25.2222 230.09 25.441C230.09 25.6463 230.09 25.8179 230.141 26.0736C229.511 25.9021 227.501 25.8848 226.751 25.8848H221.335C221.335 27.5544 221.42 29.2406 221.437 30.893H229.255C230.941 30.893 231.912 30.8237 232.594 30.1085L232.747 30.1777L232.099 31.5397C231.981 31.7947 231.912 31.812 231.623 31.812C228.557 31.812 226.308 31.7451 224.588 31.7451C222.97 31.7451 220.875 31.7955 219.257 31.812C219.325 30.6719 219.444 28.933 219.444 25.5968C219.444 21.473 219.342 20.6578 219.257 19.5319C220.926 19.5484 223.055 19.6011 224.724 19.6011C226.257 19.6011 228.522 19.5319 231.844 19.5319C231.98 19.5319 232.048 19.5846 232.082 19.7042L232.083 19.7026Z" fill="var(--fill-0, white)"/>
<path id="Vector_41" d="M240 29.228C240 30.6546 238.843 31.8112 237.417 31.8112C235.988 31.8112 234.831 30.6546 234.831 29.228C234.831 27.7999 235.989 26.6401 237.417 26.6401C238.843 26.6401 240 27.7991 240 29.228Z" fill="var(--fill-0, #EDB557)"/>
</g>
</svg>
