<svg preserveAspectRatio="none" width="100%" height="100%" overflow="visible" style="display: block;" viewBox="0 0 32 32" fill="none" xmlns="http://www.w3.org/2000/svg">
<g id="building-03">
<path id="Icon" d="M10 9.33333H13.6667M10 14.6667H13.6667M10 20H13.6667M18.3333 9.33333H22M18.3333 14.6667H22M18.3333 20H22M26.6667 28V8.26667C26.6667 6.77319 26.6667 6.02646 26.376 5.45603C26.1204 4.95426 25.7124 4.54631 25.2106 4.29065C24.6402 4 23.8935 4 22.4 4H9.6C8.10653 4 7.35979 4 6.78936 4.29065C6.28759 4.54631 5.87964 4.95426 5.62398 5.45603C5.33333 6.02646 5.33333 6.77319 5.33333 8.26667V28M29.3333 28H2.66667" stroke="var(--stroke-0, #425263)" stroke-width="2" stroke-linecap="round" stroke-linejoin="round"/>
</g>
</svg>
