<svg preserveAspectRatio="none" width="100%" height="100%" overflow="visible" style="display: block;" viewBox="0 0 132 25.8171" fill="none" xmlns="http://www.w3.org/2000/svg">
<g id="Group 1">
<path id="Vector" d="M0 0.632431C5.88508 -0.426096 12.624 -0.137456 18.812 1.36032C23.6247 2.32191 31.3932 5.1171 33.9962 6.17303C33.9988 6.19553 34.001 6.21891 34.0023 6.24141C31.3668 5.31661 23.935 2.95028 19.3153 2.12242C14.9622 1.28676 10.0707 0.812022 4.98191 0.717681C4.13933 0.700803 3.30151 0.698204 2.47668 0.709889C1.64145 0.704696 0.830031 0.726766 0.0298604 0.722871C0.0194742 0.692578 0.0103862 0.662725 0 0.632431C0.000865517 0.631133 0.000865517 0.631133 0 0.632431Z" fill="var(--fill-0, white)"/>
<path id="Vector_2" d="M1.06411 2.37429C7.69483 1.22921 14.3143 1.82078 20.044 3.23331C24.5512 4.18148 31.5074 6.56252 33.9715 7.45314C33.968 7.47564 33.9654 7.49771 33.9624 7.52022C31.4416 6.75813 24.6295 4.78518 20.2678 4.00362C16.1423 3.24932 11.4637 2.71963 6.30611 2.51753C4.81742 2.45175 2.6043 2.46516 1.08964 2.47036C1.07926 2.43876 1.0732 2.40459 1.06411 2.37473C1.06541 2.37473 1.06541 2.37473 1.06411 2.37473V2.37429Z" fill="var(--fill-0, white)"/>
<path id="Vector_3" d="M1.91886 4.22129C8.83347 3.13896 15.25 3.84089 20.572 5.10671C24.7858 5.96963 31.2053 7.97547 33.6876 8.73107C33.6807 8.75184 33.6734 8.77564 33.6669 8.79944C31.1015 8.17626 24.6781 6.56554 20.5673 5.88481C16.6491 5.24606 12.2142 4.74363 7.16173 4.45628C5.7029 4.36973 3.49367 4.33813 1.93963 4.32125C1.93314 4.28837 1.92708 4.25417 1.91929 4.22172C1.91929 4.22042 1.91929 4.22042 1.91929 4.22172L1.91886 4.22129Z" fill="var(--fill-0, white)"/>
<path id="Vector_4" d="M3.1652 6.12197C9.89113 5.22616 15.8931 5.94237 20.7577 7.02989C24.6136 7.7764 30.6016 9.41353 33.1921 10.0337C33.1813 10.0575 33.1718 10.0808 33.1614 10.1033C30.4714 9.62471 24.3574 8.37577 20.5681 7.81837C16.9092 7.31205 12.833 6.8741 8.11812 6.4924C7.33136 6.43225 6.526 6.38205 5.70462 6.347C4.88238 6.29074 4.04067 6.26954 3.17905 6.22626C3.17429 6.19077 3.17082 6.15528 3.1652 6.12283V6.12197Z" fill="var(--fill-0, white)"/>
<path id="Vector_5" d="M3.9359 8.11309C10.3169 7.38909 15.8969 8.03822 20.4049 8.95394C23.9605 9.58231 29.743 10.8979 32.5343 11.3822C32.5222 11.4073 32.5083 11.4306 32.4962 11.4544C29.5933 11.1199 23.597 10.2003 20.0769 9.76234C16.6226 9.37935 12.8715 9.02665 8.52703 8.58697C7.8 8.51599 7.05695 8.45325 6.29313 8.40348C5.52888 8.32992 4.74515 8.28663 3.94195 8.22128C3.93893 8.1858 3.93763 8.15031 3.93503 8.11353C3.93503 8.11483 3.93503 8.11483 3.93503 8.11353L3.9359 8.11309Z" fill="var(--fill-0, white)"/>
<path id="Vector_6" d="M4.02334 10.1557C10.0499 9.56673 15.2742 10.1215 19.555 10.8944C22.8985 11.4137 28.6871 12.4515 31.7709 12.7886C31.7562 12.815 31.7441 12.8397 31.729 12.8648C28.5304 12.6861 22.4705 12.0594 19.1361 11.7249C15.8065 11.4536 12.3102 11.1714 8.28861 10.6993C7.6148 10.6231 6.92498 10.5521 6.2144 10.4907C5.5064 10.4041 4.77548 10.3505 4.02551 10.2639C4.02464 10.2284 4.02248 10.1903 4.02334 10.1561C4.02291 10.1561 4.02291 10.1561 4.02334 10.1561V10.1557Z" fill="var(--fill-0, white)"/>
<path id="Vector_7" d="M4.02635 12.2074C9.59638 11.7638 14.4264 12.2416 18.516 12.8856C21.6647 13.317 27.5597 14.0869 30.9617 14.2578C30.9478 14.2842 30.9331 14.3106 30.9188 14.3366C27.4048 14.3327 21.206 13.9878 18.0468 13.7359C14.8297 13.5589 11.5888 13.3304 7.91727 12.8215C7.30319 12.7401 6.67223 12.6614 6.02309 12.5865C5.37655 12.4896 4.71054 12.4186 4.02418 12.3152C4.02548 12.2797 4.02635 12.2446 4.02635 12.2079C4.02721 12.2091 4.02721 12.2091 4.02635 12.2079V12.2074Z" fill="var(--fill-0, white)"/>
<path id="Vector_8" d="M3.95804 14.2574C9.01266 13.9532 13.4385 14.382 17.3852 14.9186C20.3617 15.2796 26.4502 15.795 30.1741 15.7846C30.1603 15.811 30.1473 15.8383 30.1347 15.866C26.3096 16.052 19.9143 15.9694 16.9053 15.7807C13.7795 15.6812 10.7662 15.4869 7.45603 14.9386C6.90166 14.8507 6.33129 14.7616 5.74836 14.6776C5.16674 14.569 4.56563 14.4846 3.95242 14.3643C3.95458 14.3288 3.95545 14.2933 3.95761 14.2578L3.95804 14.2574Z" fill="var(--fill-0, white)"/>
<path id="Vector_9" d="M3.82644 16.2944C8.34963 16.1161 12.3955 16.5251 16.2553 16.9725C19.1063 17.2819 25.4579 17.5537 29.4825 17.3516C29.4704 17.3793 29.4609 17.4066 29.4501 17.4343C25.3484 17.816 18.7064 17.9813 15.8035 17.8359C12.7356 17.7965 9.91362 17.6195 6.94014 17.0357C6.44117 16.9414 5.93225 16.844 5.4125 16.7496C4.89536 16.6302 4.36306 16.5346 3.81779 16.4008C3.82038 16.3641 3.82341 16.3286 3.82644 16.2944C3.82774 16.2931 3.82774 16.2931 3.82644 16.2944Z" fill="var(--fill-0, white)"/>
<path id="Vector_10" d="M3.63685 18.3119C7.64982 18.2409 11.3741 18.649 15.2188 19.0242C17.9962 19.2969 24.6914 19.3388 28.9688 18.939C28.9632 18.9667 28.9558 18.9952 28.9485 19.0216C24.6265 19.6067 17.6894 19.9936 14.8349 19.8781C11.7814 19.8884 9.08139 19.7153 6.40002 19.1004C5.94908 18.9996 5.49468 18.8983 5.03207 18.7949C4.57421 18.6689 4.1025 18.5612 3.62517 18.4171C3.62906 18.3816 3.63296 18.347 3.63685 18.3119Z" fill="var(--fill-0, white)"/>
<path id="Vector_11" d="M3.39192 20.3043C6.95958 20.3108 10.4511 20.741 14.3736 21.0495C17.1549 21.2949 24.2604 21.1097 28.7256 20.5116C28.7252 20.5393 28.7221 20.5666 28.7221 20.593C24.2595 21.3737 16.9827 21.9821 14.1014 21.8878C11.0037 21.9402 8.33835 21.7619 5.86946 21.1257C5.45358 21.0236 5.04203 20.9132 4.62615 20.8042C4.21459 20.6756 3.79698 20.5614 3.37764 20.4082C3.38283 20.374 3.38759 20.3394 3.39192 20.3043Z" fill="var(--fill-0, white)"/>
<path id="Vector_12" d="M3.09123 22.2669C6.32004 22.3296 9.7133 22.7888 13.8267 23.0342C16.7058 23.2609 24.2947 22.8269 28.8572 22.0306C28.865 22.0557 28.8693 22.0804 28.8767 22.1081C24.379 23.071 16.7188 23.9287 13.7146 23.8512C10.5035 23.9482 7.74858 23.7595 5.38355 23.1073C4.98758 23.0009 4.5981 22.8896 4.21165 22.7767C3.83039 22.6417 3.44869 22.5248 3.07392 22.3686C3.08042 22.3344 3.08474 22.3006 3.09123 22.2669C3.09123 22.2682 3.09123 22.2682 3.09123 22.2669Z" fill="var(--fill-0, white)"/>
<path id="Vector_13" d="M2.7312 24.1914C5.79686 24.3017 9.26411 24.7985 13.6986 24.969C16.7911 25.1737 24.9378 24.4285 29.4843 23.4384C29.5025 23.4622 29.5163 23.4855 29.5336 23.5093C25.129 24.6401 17.0447 25.8116 13.8025 25.767C10.3902 25.922 7.40109 25.7264 4.98197 25.0508C4.57734 24.9392 4.187 24.8267 3.80703 24.7085C3.43097 24.5722 3.06312 24.4489 2.71042 24.2913C2.71778 24.2571 2.72384 24.2225 2.7312 24.1914C2.73206 24.1914 2.73163 24.1901 2.7312 24.1914Z" fill="var(--fill-0, white)"/>
<path id="Vector_14" d="M28.9753 8.30091C30.3372 8.5372 32.8312 9.0366 33.9759 9.27938C35.5758 9.55245 36.9801 9.91813 38.4389 10.5188C38.438 10.5374 38.4346 10.5556 38.4346 10.5742C36.1548 10.6408 33.7309 9.80951 31.4144 9.14955C30.6151 8.90288 29.7989 8.64842 28.9459 8.38097C28.9563 8.35328 28.9658 8.32731 28.9753 8.30091Z" fill="var(--fill-0, white)"/>
<path id="Vector_15" d="M28.2834 9.84629C29.6483 10.0168 32.2141 10.3894 33.4432 10.5729C35.1491 10.7629 36.6785 11.058 38.3459 11.5881C38.3433 11.6076 38.342 11.6275 38.3403 11.6457C35.7238 11.8344 33.0779 11.1264 30.7164 10.5794C29.9015 10.3734 29.0788 10.1544 28.2397 9.92895C28.2548 9.90125 28.2691 9.87528 28.2834 9.84629C28.2838 9.84758 28.2838 9.84758 28.2834 9.84629Z" fill="var(--fill-0, white)"/>
<path id="Vector_16" d="M27.3625 11.4518C28.7464 11.5557 31.4395 11.7967 32.7776 11.9175C34.6224 12.017 36.3253 12.2334 38.2282 12.6783C38.226 12.6964 38.2238 12.7176 38.2212 12.7363C35.2326 13.076 32.3171 12.5 29.8521 12.0711C28.9987 11.9045 28.157 11.7249 27.3088 11.5384C27.3257 11.5094 27.3447 11.4821 27.3625 11.4518C27.3625 11.4531 27.3625 11.4531 27.3625 11.4518Z" fill="var(--fill-0, white)"/>
<path id="Vector_17" d="M26.3009 13.1296C27.7164 13.169 30.567 13.2711 32.0328 13.3183C34.0334 13.3209 35.9389 13.4455 38.0853 13.7891C38.0823 13.8073 38.0797 13.8285 38.0771 13.8484C34.7198 14.3613 31.51 13.9389 28.8966 13.6308C27.993 13.5061 27.1136 13.3672 26.2429 13.2201C26.2619 13.1898 26.2827 13.1612 26.3009 13.1296C26.3013 13.1296 26.3013 13.1296 26.3009 13.1296Z" fill="var(--fill-0, white)"/>
<path id="Vector_18" d="M25.1899 14.8754C26.6461 14.8503 29.672 14.8096 31.2671 14.781C33.4279 14.6776 35.5454 14.6971 37.9225 14.9277C37.9204 14.9472 37.9165 14.9671 37.9139 14.9879C34.2285 15.6937 30.7167 15.4367 27.9284 15.2571C26.9651 15.1744 26.0377 15.077 25.1324 14.9684C25.1505 14.9355 25.17 14.9065 25.1899 14.8749C25.1908 14.8762 25.1903 14.8762 25.1899 14.8749V14.8754Z" fill="var(--fill-0, white)"/>
<path id="Vector_19" d="M24.1233 16.6748C25.6271 16.5921 28.8274 16.4073 30.5467 16.2931C32.8555 16.0793 35.1772 15.985 37.756 16.0923C37.7539 16.1118 37.7513 16.133 37.7474 16.1537C33.8023 17.063 30.0114 16.9842 27.0318 16.9327C26.0036 16.8972 25.0204 16.8423 24.0705 16.77C24.0882 16.7384 24.1051 16.7059 24.1233 16.6748C24.1241 16.6748 24.1241 16.6748 24.1233 16.6748Z" fill="var(--fill-0, white)"/>
<path id="Vector_20" d="M23.2001 18.5036C24.7524 18.3673 28.1184 18.0393 29.9455 17.8411C32.3794 17.5169 34.8807 17.2993 37.6097 17.2824C37.6075 17.3032 37.6062 17.3231 37.6032 17.3451C33.5123 18.4508 29.4747 18.5521 26.2996 18.6373C25.2051 18.6464 24.16 18.6348 23.1582 18.6006C23.1729 18.5677 23.185 18.5348 23.201 18.5036C23.2001 18.5036 23.2001 18.5036 23.201 18.5036H23.2001Z" fill="var(--fill-0, white)"/>
<path id="Vector_21" d="M22.5259 20.332C24.1289 20.1416 27.6403 19.6803 29.5444 19.3981C32.0631 18.9706 34.7046 18.6244 37.5158 18.4876C37.5149 18.5084 37.5141 18.5283 37.5128 18.5504C33.4211 19.8305 29.1947 20.1178 25.8292 20.3381C24.6698 20.393 23.5611 20.4233 22.4995 20.4259C22.5073 20.3943 22.5164 20.3615 22.5259 20.3316C22.5264 20.3316 22.5264 20.3316 22.5259 20.3316V20.332Z" fill="var(--fill-0, white)"/>
<path id="Vector_22" d="M22.2174 22.1254C23.8723 21.8891 27.4914 21.2884 29.4376 20.9292C31.9947 20.4017 34.7172 19.936 37.518 19.6963C37.5193 19.7171 37.5206 19.7396 37.5215 19.7608C33.6145 21.159 29.2779 21.6394 25.7332 21.9973C24.5141 22.102 23.3396 22.173 22.2135 22.2189C22.2144 22.1873 22.217 22.1574 22.217 22.1258L22.2174 22.1254Z" fill="var(--fill-0, white)"/>
<path id="Vector_23" d="M22.4039 23.846C24.1077 23.5535 27.7918 22.8204 29.7309 22.3885C32.2639 21.7744 34.9894 21.1975 37.6716 20.8838C37.6751 20.9046 37.6803 20.9232 37.685 20.9452C34.194 22.392 29.8352 23.0558 26.1373 23.566C24.8676 23.7223 23.6256 23.8443 22.4303 23.9334C22.4208 23.9057 22.413 23.8759 22.4039 23.8456C22.4043 23.8469 22.4043 23.8456 22.4039 23.8456V23.846Z" fill="var(--fill-0, white)"/>
<path id="Vector_24" d="M23.2322 25.4464C24.9853 25.0885 28.675 24.2134 30.5484 23.7188C32.977 23.029 35.6168 22.3612 38.0459 22.0189C38.0554 22.0371 38.0641 22.057 38.0732 22.0752C35.2724 23.4565 31.0097 24.2961 27.1845 24.982C25.8711 25.1984 24.5698 25.3806 23.2966 25.5251C23.275 25.5 23.2525 25.4728 23.2322 25.4464C23.2326 25.4451 23.2322 25.4451 23.2322 25.4464Z" fill="var(--fill-0, white)"/>
<path id="Vector_25" d="M67.0576 21.1915V24.7029H66.6915V23.0831H64.4935V24.7029H64.1222V21.1915H64.4935V22.7563H66.6915V21.1915H67.0576Z" fill="var(--fill-0, white)"/>
<path id="Vector_26" d="M74.4898 24.3826V24.7029H72.0058V21.1915H74.4145V21.5117H72.3771V22.762H74.1934V23.0779H72.3771V24.3831H74.4898V24.3826Z" fill="var(--fill-0, white)"/>
<path id="Vector_27" d="M79.4467 21.1915H79.0754V24.7029H79.4467V21.1915Z" fill="var(--fill-0, white)"/>
<path id="Vector_28" d="M86.9143 22.9463H87.2709V24.287C86.9398 24.5834 86.4682 24.7332 85.9813 24.7332C84.9124 24.7332 84.1295 23.9763 84.1295 22.9468C84.1295 21.9185 84.9124 21.1616 85.9861 21.1616C86.5179 21.1616 86.9797 21.3321 87.2908 21.668L87.0602 21.9042C86.7642 21.613 86.4128 21.4923 86.0012 21.4923C85.1331 21.4923 84.4956 22.1102 84.4956 22.9468C84.4956 23.7811 85.1331 24.403 85.996 24.403C86.3323 24.403 86.6434 24.3268 86.9143 24.1317V22.9472V22.9463Z" fill="var(--fill-0, white)"/>
<path id="Vector_29" d="M95.0606 21.1915V24.7029H94.6945V23.0831H92.4965V24.7029H92.1252V21.1915H92.4965V22.7563H94.6945V21.1915H95.0606Z" fill="var(--fill-0, white)"/>
<path id="Vector_30" d="M100.742 21.5113H99.5075V21.1911H102.348V21.5113H101.113V24.7029H100.742L100.742 21.5113Z" fill="var(--fill-0, white)"/>
<path id="Vector_31" d="M106.487 24.2766L106.633 23.9906C106.884 24.2372 107.33 24.4168 107.792 24.4168C108.449 24.4168 108.735 24.1412 108.735 23.795C108.735 22.8321 106.572 23.4237 106.572 22.1236C106.572 21.6069 106.974 21.1608 107.867 21.1608C108.264 21.1608 108.675 21.2763 108.956 21.4715L108.83 21.7666C108.529 21.571 108.178 21.4767 107.867 21.4767C107.225 21.4767 106.938 21.7627 106.938 22.1128C106.938 23.077 109.101 22.4945 109.101 23.7746C109.101 24.2913 108.69 24.7323 107.791 24.7323C107.264 24.7323 106.748 24.5475 106.487 24.2757L106.487 24.2766Z" fill="var(--fill-0, white)"/>
<path id="Vector_32" d="M46.5605 11.2393C46.5323 11.7262 46.5137 12.3437 46.5137 14.2184H49.5582C51.4225 14.2184 51.9565 13.6463 51.9565 12.7285C51.9565 11.8101 51.4225 11.2398 49.5582 11.2398H46.5605V11.2393ZM46.0078 17.4594C45.8109 17.4594 45.5958 17.4871 45.3989 17.4962C45.4366 16.8691 45.5019 15.9127 45.5019 14.0778C45.5019 11.8097 45.4457 11.3614 45.3989 10.7421C45.7456 10.7512 46.1671 10.7802 46.5232 10.7802C46.8418 10.7802 48.8372 10.7421 49.5582 10.7421C51.8817 10.7421 53.0337 11.2013 53.0337 12.728C53.0337 13.9268 52.3218 14.4716 50.8976 14.6486C51.2161 14.8741 51.4221 15.1645 51.6094 15.483C52.1153 16.3446 52.4711 17.3559 53.4175 17.3655C53.7923 17.3655 54.1294 17.2724 54.4665 17.0573L54.5228 17.1504C54.1385 17.4126 53.6516 17.5909 53.0051 17.5909C50.1948 17.5909 51.0845 14.7144 49.08 14.7144H46.5133C46.5228 16.139 46.5791 16.9167 46.6163 17.4966C46.4103 17.4875 46.2039 17.4598 46.0074 17.4598L46.0078 17.4594Z" fill="var(--fill-0, white)"/>
<path id="Vector_33" d="M62.4608 10.8364L62.592 11.4925L62.5076 11.5107C62.3578 11.2865 61.6736 11.2393 61.1963 11.2393H56.606C56.597 12.0633 56.5498 12.9158 56.5498 13.7407H59.5289C59.9413 13.7407 61.0466 13.7212 61.3932 13.6373C61.3651 13.7684 61.3651 13.8722 61.3651 13.9925C61.3651 14.1055 61.3651 14.1998 61.3932 14.3405C61.0466 14.2461 59.9413 14.2366 59.5289 14.2366H56.5498C56.5498 15.1549 56.597 16.0823 56.606 16.9911H60.9059C61.8333 16.9911 62.3674 16.953 62.7421 16.5597L62.8265 16.5978L62.4703 17.3469C62.405 17.4871 62.3674 17.4966 62.2081 17.4966C60.5221 17.4966 59.2852 17.4598 58.3392 17.4598C57.4491 17.4598 56.2971 17.4875 55.4069 17.4966C55.4445 16.8695 55.5103 15.9131 55.5103 14.0782C55.5103 11.8101 55.454 11.3618 55.4069 10.7425C56.3252 10.7516 57.4962 10.7806 58.4141 10.7806C59.2571 10.7806 60.503 10.7425 62.3297 10.7425C62.405 10.7425 62.4422 10.7715 62.4608 10.8373V10.8364Z" fill="var(--fill-0, white)"/>
<path id="Vector_34" d="M65.1146 11.2393C65.0864 11.7444 65.0678 12.3727 65.0678 14.2838H68.1872C69.6486 14.2838 70.5102 13.8995 70.5102 12.7661C70.5102 11.6236 69.6486 11.2389 68.1872 11.2389H65.1146V11.2393ZM64.5619 17.4594C64.3655 17.4594 64.1495 17.4871 63.9531 17.4962C63.9903 16.8691 64.056 15.9127 64.056 14.0778C64.056 11.8097 63.9998 11.3614 63.9531 10.7421C64.3088 10.7512 64.7212 10.7802 65.0769 10.7802C65.3954 10.7802 67.6908 10.7421 68.1872 10.7421C70.4916 10.7421 71.6626 11.2303 71.6626 12.7661C71.6626 14.302 70.4916 14.7888 68.1872 14.7888H65.0678C65.0774 16.1663 65.1332 16.9717 65.1708 17.4962C64.9648 17.4871 64.7588 17.4594 64.5619 17.4594Z" fill="var(--fill-0, white)"/>
<path id="Vector_35" d="M73.7935 14.096C73.7935 16.1005 75.4795 17.2902 77.8125 17.2902C80.0044 17.2902 81.7844 16.2039 81.7844 14.1436C81.7844 12.1287 80.0888 10.9481 77.7563 10.9481C75.5639 10.9481 73.7935 12.0265 73.7935 14.0964V14.096ZM77.8593 10.5266C80.7258 10.5266 83.0303 11.8478 83.0303 14.0393C83.0303 16.2221 80.857 17.7121 77.7186 17.7121C74.852 17.7121 72.5476 16.3913 72.5476 14.1704C72.5476 11.9876 74.7114 10.5266 77.8593 10.5266Z" fill="var(--fill-0, white)"/>
<path id="Vector_36" d="M85.7204 11.2393C85.6922 11.7262 85.6736 12.3437 85.6736 14.2184H88.7181C90.5824 14.2184 91.116 13.6463 91.116 12.7285C91.116 11.8101 90.582 11.2398 88.7181 11.2398L85.7204 11.2393ZM85.1677 17.4594C84.9708 17.4594 84.7553 17.4871 84.5589 17.4962C84.5965 16.8691 84.6619 15.9127 84.6619 14.0778C84.6619 11.8097 84.6056 11.3614 84.5589 10.7421C84.9055 10.7512 85.327 10.7802 85.6832 10.7802C86.0017 10.7802 87.9971 10.7421 88.7181 10.7421C91.0411 10.7421 92.1936 11.2013 92.1936 12.728C92.1936 13.9268 91.4817 14.4716 90.0575 14.6486C90.376 14.8741 90.582 15.1645 90.7694 15.483C91.2753 16.3446 91.631 17.3559 92.5774 17.3655C92.9522 17.3655 93.2893 17.2724 93.6264 17.0573L93.6827 17.1504C93.2984 17.4126 92.8116 17.5909 92.165 17.5909C89.3547 17.5909 90.2444 14.7144 88.2399 14.7144H85.6732C85.6827 16.139 85.739 16.9167 85.7762 17.4966C85.5702 17.4875 85.3642 17.4598 85.1673 17.4598L85.1677 17.4594Z" fill="var(--fill-0, white)"/>
<path id="Vector_37" d="M97.2763 17.4594C97.0794 17.4594 96.8639 17.4871 96.6674 17.4962C96.7051 16.8691 96.7799 15.9127 96.7799 14.0778C96.7799 12.3814 96.7427 11.7072 96.7051 11.2103H94.1198C93.7822 11.2103 93.5013 11.2865 93.314 11.5475L93.2205 11.5293L93.3702 10.7239H93.4732C93.6887 10.7239 93.9042 10.7421 94.2041 10.7421H100.349C100.658 10.7421 101.005 10.7421 101.08 10.7239H101.192L101.342 11.5293L101.249 11.5475C101.052 11.2865 100.78 11.2103 100.443 11.2103H97.848C97.8103 11.7076 97.7822 12.3818 97.7822 14.0778C97.7822 15.9127 97.848 16.8691 97.8852 17.4962C97.6883 17.4871 97.4732 17.4594 97.2763 17.4594Z" fill="var(--fill-0, white)"/>
<path id="Vector_38" d="M104.804 11.4449C104.083 12.5311 103.295 13.7403 102.527 14.9394H106.939C106.265 13.7866 105.562 12.6255 104.803 11.4449H104.804ZM105.694 11.042C106.996 13.2811 108.177 15.1926 109.712 17.4957C109.422 17.4775 109.226 17.468 109.038 17.468C108.841 17.468 108.653 17.4771 108.364 17.4957C107.989 16.8124 107.614 16.1291 107.23 15.444H102.209C101.769 16.1473 101.338 16.85 100.954 17.4957C100.86 17.4775 100.701 17.468 100.532 17.468C100.364 17.468 100.195 17.4771 100.111 17.4957C101.506 15.5293 103.193 13.0751 104.523 11.0329C104.383 10.9018 104.186 10.8542 103.886 10.836V10.7412C104.083 10.7412 104.411 10.7702 104.608 10.7702C104.823 10.7702 105.067 10.7412 105.188 10.7412C105.451 10.7412 105.573 10.7702 105.694 11.0416L105.694 11.042Z" fill="var(--fill-0, white)"/>
<path id="Vector_39" d="M110.986 14.0029C110.986 15.9599 112.729 17.272 115.211 17.272C116.176 17.272 117.141 17.1132 117.815 16.7947C117.797 15.1549 117.759 14.7429 117.712 14.2366C117.9 14.2461 118.097 14.2656 118.284 14.2656C118.471 14.2656 118.668 14.2461 118.855 14.2366C118.809 14.7706 118.752 15.164 118.752 17.0478C118.387 17.1789 117.975 17.3192 117.544 17.4217C116.813 17.6 116.017 17.713 115.183 17.713C112.167 17.713 109.787 16.3827 109.787 14.0311C109.787 11.792 111.951 10.5275 115.183 10.5275C116.354 10.5275 117.441 10.6863 118.397 11.09C118.509 11.1268 118.631 11.2017 118.668 11.3051L118.771 12.1853L118.687 12.2035C118.162 11.473 116.869 10.9585 115.155 10.9585C112.832 10.9585 110.986 11.9698 110.986 14.0029Z" fill="var(--fill-0, white)"/>
<path id="Vector_40" d="M127.646 10.8364L127.777 11.4925L127.692 11.5107C127.542 11.2865 126.858 11.2393 126.381 11.2393H121.79C121.781 12.0633 121.734 12.9158 121.734 13.7407H124.713C125.125 13.7407 126.231 13.7212 126.577 13.6373C126.549 13.7684 126.549 13.8722 126.549 13.9925C126.549 14.1055 126.549 14.1998 126.577 14.3405C126.231 14.2461 125.126 14.2366 124.713 14.2366H121.734C121.734 15.1549 121.781 16.0823 121.79 16.9911H126.09C127.018 16.9911 127.552 16.953 127.926 16.5597L128.011 16.5978L127.655 17.3469C127.589 17.4871 127.552 17.4966 127.392 17.4966C125.706 17.4966 124.469 17.4598 123.523 17.4598C122.633 17.4598 121.481 17.4875 120.591 17.4966C120.629 16.8695 120.694 15.9131 120.694 14.0782C120.694 11.8101 120.638 11.3618 120.591 10.7425C121.509 10.7516 122.68 10.7806 123.598 10.7806C124.441 10.7806 125.687 10.7425 127.514 10.7425C127.589 10.7425 127.626 10.7715 127.645 10.8373L127.646 10.8364Z" fill="var(--fill-0, white)"/>
<path id="Vector_41" d="M132 16.0754C132 16.86 131.364 17.4962 130.579 17.4962C129.793 17.4962 129.157 16.86 129.157 16.0754C129.157 15.29 129.794 14.6521 130.579 14.6521C131.364 14.6521 132 15.2895 132 16.0754Z" fill="var(--fill-0, #EDB557)"/>
</g>
</svg>
