<svg preserveAspectRatio="none" width="100%" height="100%" overflow="visible" style="display: block;" viewBox="0 0 40 40" fill="none" xmlns="http://www.w3.org/2000/svg">
<g id="file-05">
<path id="Icon" d="M23.3333 3.78255V10.6668C23.3333 11.6002 23.3333 12.0669 23.515 12.4234C23.6748 12.737 23.9297 12.992 24.2433 13.1518C24.5999 13.3335 25.0666 13.3335 26 13.3335H32.8842M23.3333 28.3333H13.3333M26.6667 21.6667H13.3333M33.3333 16.647V28.6667C33.3333 31.4669 33.3333 32.8671 32.7884 33.9366C32.309 34.8774 31.5441 35.6423 30.6033 36.1217C29.5337 36.6667 28.1336 36.6667 25.3333 36.6667H14.6667C11.8664 36.6667 10.4663 36.6667 9.39671 36.1217C8.4559 35.6423 7.691 34.8774 7.21163 33.9366C6.66667 32.8671 6.66667 31.4669 6.66667 28.6667V11.3333C6.66667 8.53307 6.66667 7.13294 7.21163 6.06338C7.691 5.12257 8.4559 4.35767 9.39671 3.8783C10.4663 3.33333 11.8664 3.33333 14.6667 3.33333H20.0196C21.2426 3.33333 21.8541 3.33333 22.4295 3.47148C22.9397 3.59397 23.4274 3.79599 23.8748 4.07013C24.3793 4.37934 24.8117 4.81172 25.6765 5.67648L30.9902 10.9902C31.8549 11.8549 32.2873 12.2873 32.5965 12.7919C32.8707 13.2393 33.0727 13.727 33.1952 14.2372C33.3333 14.8126 33.3333 15.4241 33.3333 16.647Z" stroke="var(--stroke-0, white)" stroke-width="2" stroke-linecap="round" stroke-linejoin="round"/>
</g>
</svg>
