<svg preserveAspectRatio="none" width="100%" height="100%" overflow="visible" style="display: block;" viewBox="0 0 32 32" fill="none" xmlns="http://www.w3.org/2000/svg">
<g id="SVG">
<path id="Vector" d="M2.66667 8C3.46667 8.66667 4.26667 9.33333 6 9.33333C9.33333 9.33333 9.33333 6.66667 12.6667 6.66667C16.1333 6.66667 15.8667 9.33333 19.3333 9.33333C22.6667 9.33333 22.6667 6.66667 26 6.66667C27.7333 6.66667 28.5333 7.33333 29.3333 8" stroke="var(--stroke-0, #425263)" stroke-width="2" stroke-linecap="round" stroke-linejoin="round"/>
<path id="Vector_2" d="M2.66667 16C3.46667 16.6667 4.26667 17.3333 6 17.3333C9.33333 17.3333 9.33333 14.6667 12.6667 14.6667C16.1333 14.6667 15.8667 17.3333 19.3333 17.3333C22.6667 17.3333 22.6667 14.6667 26 14.6667C27.7333 14.6667 28.5333 15.3333 29.3333 16" stroke="var(--stroke-0, #425263)" stroke-width="2" stroke-linecap="round" stroke-linejoin="round"/>
<path id="Vector_3" d="M2.66667 24C3.46667 24.6667 4.26667 25.3333 6 25.3333C9.33333 25.3333 9.33333 22.6667 12.6667 22.6667C16.1333 22.6667 15.8667 25.3333 19.3333 25.3333C22.6667 25.3333 22.6667 22.6667 26 22.6667C27.7333 22.6667 28.5333 23.3333 29.3333 24" stroke="var(--stroke-0, #425263)" stroke-width="2" stroke-linecap="round" stroke-linejoin="round"/>
</g>
</svg>
