<svg preserveAspectRatio="none" width="100%" height="100%" overflow="visible" style="display: block;" viewBox="0 0 32 32" fill="none" xmlns="http://www.w3.org/2000/svg">
<g id="SVG">
<path id="Vector" d="M25.3333 22.6667H28C28.8 22.6667 29.3333 22.1333 29.3333 21.3333V17.3333C29.3333 16.1333 28.4 15.0667 27.3333 14.8C24.9333 14.1333 21.3333 13.3333 21.3333 13.3333C21.3333 13.3333 19.6 11.4667 18.4 10.2667C17.7333 9.73333 16.9333 9.33333 16 9.33333H6.66667C5.86667 9.33333 5.2 9.86667 4.8 10.5333L2.93333 14.4C2.75677 14.915 2.66667 15.4556 2.66667 16V21.3333C2.66667 22.1333 3.2 22.6667 4 22.6667H6.66667" stroke="var(--stroke-0, #425263)" stroke-width="2" stroke-linecap="round" stroke-linejoin="round"/>
<path id="Vector_2" d="M9.33333 25.3333C10.8061 25.3333 12 24.1394 12 22.6667C12 21.1939 10.8061 20 9.33333 20C7.86057 20 6.66667 21.1939 6.66667 22.6667C6.66667 24.1394 7.86057 25.3333 9.33333 25.3333Z" stroke="var(--stroke-0, #425263)" stroke-width="2" stroke-linecap="round" stroke-linejoin="round"/>
<path id="Vector_3" d="M12 22.6667H20" stroke="var(--stroke-0, #425263)" stroke-width="2" stroke-linecap="round" stroke-linejoin="round"/>
<path id="Vector_4" d="M22.6667 25.3333C24.1394 25.3333 25.3333 24.1394 25.3333 22.6667C25.3333 21.1939 24.1394 20 22.6667 20C21.1939 20 20 21.1939 20 22.6667C20 24.1394 21.1939 25.3333 22.6667 25.3333Z" stroke="var(--stroke-0, #425263)" stroke-width="2" stroke-linecap="round" stroke-linejoin="round"/>
</g>
</svg>
